<svg width="36" height="38" viewBox="0 0 36 38" fill="none" xmlns="http://www.w3.org/2000/svg">
<g clip-path="url(#clip0_174_376)">
<path d="M33.6551 27.9726C31.3323 32.2382 25.9643 34.3367 21.2943 35.1855C20.783 35.2784 20.2644 35.3541 19.7383 35.4127C19.7646 35.3111 19.778 35.2067 19.7783 35.1019V19.3943C24.4662 22.1809 31.1811 22.1809 34.4042 17.3258C35.72 15.3474 36.1824 12.7302 35.1666 10.5374C34.3997 8.86973 32.7838 8.99834 31.1967 9.292C29.8796 9.53935 28.5892 9.90461 27.3424 10.383C24.5328 11.4554 21.9655 13.043 19.7828 15.058V10.5138C19.7828 8.94047 17.2488 8.93833 17.2488 10.5138V18.0632C15.8713 16.3868 14.2721 14.8915 12.4921 13.6154C11.2994 12.7561 10.0235 12.0095 8.68226 11.3862C7.30414 10.7432 5.43924 9.86218 4.29007 11.3648C3.4632 12.4365 3.12533 13.967 2.97863 15.2788C2.83274 16.6168 2.95346 17.9693 3.33427 19.2636C3.70888 20.5656 4.35353 21.7808 5.22922 22.8356C6.1049 23.8905 7.1934 24.763 8.42886 25.4004C11.1162 26.7594 14.397 27.0509 17.2533 26.0135V35.1019C17.2529 35.2611 17.2838 35.419 17.3444 35.567C13.9569 35.6099 10.5427 34.9068 7.63978 33.2092C5.28364 31.8331 3.112 29.7667 2.48073 27.1045C2.1162 25.5719 -0.326628 26.2214 0.0356832 27.7476C1.30711 33.1063 7.16411 36.5359 12.4032 37.5476C17.8512 38.6044 23.6037 37.7191 28.5938 35.4149C31.5479 34.0516 34.293 32.0367 35.8401 29.1987C36.6003 27.8161 34.4153 26.5793 33.6551 27.9726ZM26.4955 13.4161C28.3893 12.4858 30.6321 11.6713 32.7682 11.5105C32.8006 11.5094 32.8327 11.5043 32.8638 11.4955V11.5105C32.986 11.6391 33.0194 11.9392 33.0638 12.1171C33.1679 12.5329 33.2069 12.9613 33.1794 13.3882C33.1273 14.2014 32.8816 14.9921 32.4615 15.6989C31.9969 16.4987 31.3539 17.1889 30.579 17.7198C29.804 18.2506 28.9164 18.6088 27.9804 18.7684C25.5975 19.225 23.0903 18.4855 21.0564 17.2851L21.0231 17.2701C21.0748 17.2333 21.1245 17.1939 21.172 17.1522C22.7278 15.6402 24.5252 14.3788 26.4955 13.4161ZM16.8487 23.5784C12.8344 25.1668 7.95764 23.5784 6.16164 19.6623C5.30689 17.7681 5.22277 15.6331 5.92602 13.6819C5.99713 13.484 6.07949 13.2901 6.17275 13.101C6.18387 13.0796 6.19943 13.0538 6.21498 13.0303C6.36391 13.101 6.74623 13.2082 6.83069 13.2446C7.15299 13.3839 7.47307 13.5319 7.78871 13.6733C8.8642 14.1987 9.89637 14.8028 10.8761 15.4803C13.0605 17.0059 14.9345 18.9068 16.4042 21.0877C16.4958 21.2332 16.6192 21.3577 16.7659 21.4525C16.9125 21.5472 17.0789 21.61 17.2533 21.6364V23.5141C17.1151 23.5055 16.9767 23.5275 16.8487 23.5784Z" fill="#0EAA4F"/>
<path d="M6.30593 7.71671C6.94387 8.08539 7.63959 7.80674 8.03969 7.27729C10.338 4.25281 14.2457 2.56159 18.0799 2.4587C20.2649 2.41341 22.4382 2.77738 24.4793 3.53045C25.4548 3.88316 26.3983 4.31333 27.3 4.81655C27.7957 5.09306 28.2936 5.38029 28.7604 5.70182C28.9493 5.83257 29.096 5.98261 29.2738 6.13052C29.3069 6.15442 29.3348 6.18426 29.3561 6.2184C29.3678 6.18979 29.3827 6.16248 29.4005 6.13695C29.3827 6.16481 29.3716 6.19053 29.3561 6.2184C29.4116 6.31057 29.3138 6.33415 29.3561 6.2184C28.6248 7.51736 30.7342 8.66414 31.5788 7.36732C33.2259 4.86585 29.0782 2.90026 27.2978 2.06215C24.7825 0.850385 22.0348 0.152745 19.2269 0.0129618C14.0456 -0.201388 8.93325 1.9807 5.85249 6.0362C5.4435 6.57208 5.76357 7.39304 6.30593 7.71671Z" fill="#0EAA4F"/>
</g>
<defs>
<clipPath id="clip0_174_376">
<rect width="36" height="38" fill="white"/>
</clipPath>
</defs>
</svg>
